<svg xmlns="http://www.w3.org/2000/svg" xmlns:xlink="http://www.w3.org/1999/xlink" width="500" zoomAndPan="magnify" viewBox="0 0 375 374.999991" height="500" preserveAspectRatio="xMidYMid meet" version="1.0"><defs><clipPath id="37e34184f5"><path d="M 49.199219 28.53125 L 325.949219 28.53125 L 325.949219 346.53125 L 49.199219 346.53125 Z M 49.199219 28.53125 " clip-rule="nonzero"/></clipPath><clipPath id="bf50c5710e"><path d="M 123 264 L 194 264 L 194 346.53125 L 123 346.53125 Z M 123 264 " clip-rule="nonzero"/></clipPath></defs><g clip-path="url(#37e34184f5)"><path fill="#1c2023" d="M 260.21875 154.695312 C 262.503906 151.269531 271.644531 149.175781 277.261719 148.824219 C 309.285156 146.191406 325.949219 124.425781 325.375 105.265625 C 324.964844 91.621094 315.664062 82.230469 302.207031 81.945312 C 280.4375 81.4375 279.707031 80.167969 275.007812 71.730469 C 274.375 70.585938 273.707031 69.382812 272.945312 68.046875 C 260.472656 46.632812 215.089844 50.566406 196.363281 53.199219 L 196.363281 35.242188 C 196.363281 35.148438 196.300781 35.050781 196.300781 34.925781 C 196.269531 34.511719 196.140625 34.101562 196.046875 33.6875 C 195.953125 33.277344 195.855469 32.863281 195.664062 32.484375 C 195.601562 32.386719 195.632812 32.261719 195.570312 32.164062 C 195.445312 31.910156 195.191406 31.753906 195.03125 31.53125 C 194.777344 31.183594 194.523438 30.832031 194.175781 30.515625 C 193.855469 30.230469 193.539062 30.039062 193.191406 29.847656 C 192.839844 29.628906 192.492188 29.4375 192.113281 29.277344 C 191.699219 29.121094 191.285156 29.085938 190.84375 29.023438 C 190.523438 29.023438 190.269531 28.898438 189.984375 28.898438 C 189.859375 28.898438 189.792969 28.960938 189.667969 28.960938 C 189.253906 28.992188 188.84375 29.121094 188.429688 29.214844 C 188.015625 29.308594 187.574219 29.40625 187.191406 29.59375 C 187.097656 29.628906 187 29.628906 186.90625 29.691406 L 52.433594 103.390625 C 50.402344 104.503906 49.132812 106.660156 49.132812 108.976562 L 49.132812 339.789062 C 49.132812 341.472656 49.800781 343.121094 51.007812 344.292969 C 52.214844 345.46875 53.832031 346.167969 55.511719 346.167969 L 116.257812 346.101562 C 116.257812 346.101562 116.289062 346.101562 116.289062 346.101562 C 117.085938 346.101562 117.8125 345.914062 118.542969 345.628906 C 118.703125 345.5625 118.863281 345.5 119.019531 345.4375 C 119.625 345.152344 120.164062 344.800781 120.671875 344.328125 C 120.734375 344.261719 120.796875 344.230469 120.859375 344.167969 C 121.335938 343.691406 121.75 343.121094 122.066406 342.488281 C 122.097656 342.421875 122.097656 342.359375 122.128906 342.296875 C 122.257812 342.042969 122.257812 341.726562 122.351562 341.4375 C 122.511719 340.898438 122.667969 340.359375 122.667969 339.789062 C 122.667969 339.757812 122.703125 339.726562 122.703125 339.695312 C 122.703125 339.472656 122.605469 339.3125 122.574219 339.089844 C 122.511719 338.488281 122.449219 337.917969 122.226562 337.347656 C 122.097656 337.0625 121.910156 336.808594 121.75 336.523438 C 121.496094 336.078125 121.273438 335.664062 120.925781 335.285156 C 120.640625 335 120.289062 334.777344 119.941406 334.554688 C 119.65625 334.332031 119.433594 334.078125 119.082031 333.921875 C 108.199219 328.71875 86.363281 308.222656 85.125 284.488281 C 84.109375 265.960938 95.757812 249.082031 119.65625 234.394531 C 148.632812 216.53125 170.023438 186.675781 181.828125 147.96875 C 184.683594 147.9375 187.476562 147.492188 190.046875 146.667969 C 205.125 141.910156 218.769531 124.839844 215.058594 107.007812 C 214.328125 103.550781 210.964844 101.363281 207.503906 102.058594 C 204.042969 102.789062 201.855469 106.152344 202.585938 109.609375 C 204.804688 120.207031 195.792969 131.46875 186.238281 134.484375 C 177.703125 137.179688 170.910156 133.058594 166.402344 122.585938 C 153.898438 93.367188 186.207031 70.714844 192.332031 66.746094 C 215.628906 62.625 254.15625 61.132812 261.933594 74.457031 C 262.664062 75.695312 263.296875 76.835938 263.902344 77.914062 C 271.167969 90.957031 275.550781 94.066406 301.953125 94.667969 C 311 94.859375 312.554688 101.617188 312.648438 105.613281 C 313 117.003906 301.921875 133.976562 276.375 136.070312 C 273.074219 136.261719 256.222656 137.753906 249.652344 147.554688 C 249.460938 147.839844 249.269531 148.191406 249.078125 148.507812 L 224.070312 131.027344 C 222.101562 129.660156 219.5625 129.503906 217.46875 130.582031 C 215.34375 131.691406 214.042969 133.851562 214.042969 136.230469 L 214.042969 168.496094 C 201.539062 173.921875 166.65625 192.257812 172.53125 225.761719 L 164.59375 245.910156 C 163.707031 248.128906 164.152344 250.667969 165.769531 252.476562 C 166.691406 253.492188 188.367188 277.320312 227.210938 264.089844 C 245.777344 257.777344 256.792969 261.265625 260.601562 266.183594 C 264.25 270.847656 263.171875 278.367188 257.679688 286.867188 C 252.347656 295.117188 238.164062 304.921875 223.152344 315.296875 C 214.167969 321.515625 204.902344 327.921875 196.332031 334.777344 C 194.746094 336.046875 193.921875 337.917969 193.953125 339.820312 C 193.953125 343.34375 196.808594 346.199219 200.332031 346.199219 L 304.683594 346.136719 C 308.207031 346.136719 311.0625 343.28125 311.0625 339.757812 L 311.0625 195.179688 C 311.0625 193.085938 310.046875 191.148438 308.332031 189.941406 L 259.839844 156.121094 C 259.839844 155.359375 260.0625 154.917969 260.21875 154.695312 Z M 154.660156 127.632812 C 158.46875 136.515625 163.738281 141.941406 169.386719 144.953125 C 158.375 180.710938 139.460938 207.203125 112.957031 223.511719 C 77.855469 245.117188 71.507812 268.976562 72.367188 285.21875 C 73.382812 304.445312 84.710938 321.800781 96.804688 333.378906 L 61.894531 333.414062 L 61.894531 112.75 L 183.605469 46.03125 L 183.605469 57.230469 C 166.148438 69 141.171875 96.160156 154.660156 127.632812 Z M 298.175781 333.347656 L 219.375 333.378906 C 223.023438 330.8125 226.703125 328.242188 230.324219 325.734375 C 247.113281 314.121094 261.585938 304.097656 268.3125 293.753906 C 276.945312 280.429688 277.769531 267.515625 270.566406 258.316406 C 265.203125 251.429688 256.347656 247.910156 245.429688 247.910156 C 238.671875 247.910156 231.085938 249.273438 223.023438 252 C 199.21875 260.089844 183.953125 251.175781 178.019531 246.511719 L 185.035156 228.714844 C 185.511719 227.539062 185.605469 226.238281 185.320312 225 C 178.6875 194.828125 222.039062 178.964844 222.484375 178.808594 C 225.023438 177.886719 226.703125 175.507812 226.703125 172.8125 L 226.703125 148.570312 L 250.445312 165.164062 C 250.445312 165.164062 250.445312 165.164062 250.476562 165.164062 L 298.175781 198.507812 Z M 298.175781 333.347656 " fill-opacity="1" fill-rule="nonzero"/></g><g clip-path="url(#bf50c5710e)"><path fill="#1c2023" d="M 185.351562 274.148438 C 165.609375 252.445312 127.683594 275.414062 126.097656 276.429688 C 123.113281 278.269531 122.164062 282.207031 124.003906 285.1875 C 125.84375 288.167969 129.777344 289.121094 132.761719 287.28125 C 133.078125 287.089844 163.484375 269.070312 175.894531 282.710938 C 179.289062 286.457031 180.78125 290.675781 180.367188 295.5625 C 179.164062 310.886719 160.34375 329.066406 153.234375 334.777344 C 151.105469 336.457031 150.3125 339.3125 151.203125 341.882812 C 152.089844 344.421875 154.503906 346.136719 157.230469 346.136719 L 178.273438 346.136719 C 181.796875 346.136719 184.652344 343.28125 184.652344 339.757812 C 184.652344 336.234375 181.796875 333.378906 178.273438 333.378906 L 173.292969 333.378906 C 181.859375 324.179688 192.015625 310.503906 193.160156 296.578125 C 193.792969 288.105469 191.191406 280.554688 185.351562 274.148438 Z M 185.351562 274.148438 " fill-opacity="1" fill-rule="nonzero"/></g><path fill="#1c2023" d="M 206.265625 205.554688 C 201.824219 205.554688 198.203125 209.167969 198.203125 213.613281 C 198.203125 218.054688 201.824219 221.671875 206.265625 221.671875 C 210.710938 221.671875 214.328125 218.054688 214.328125 213.613281 C 214.296875 209.167969 210.710938 205.554688 206.265625 205.554688 Z M 206.265625 205.554688 " fill-opacity="1" fill-rule="nonzero"/><path fill="#1c2023" d="M 252.378906 85.6875 C 252.378906 81.246094 248.761719 77.628906 244.320312 77.628906 C 239.875 77.628906 236.257812 81.246094 236.257812 85.6875 C 236.257812 90.128906 239.875 93.746094 244.320312 93.746094 C 248.792969 93.746094 252.378906 90.128906 252.378906 85.6875 Z M 252.378906 85.6875 " fill-opacity="1" fill-rule="nonzero"/></svg>